<mxfile host="65bd71144e">
    <diagram id="K8iId4k65Lw2WxyyQW85" name="Page-1">
        <mxGraphModel dx="610" dy="762" grid="1" gridSize="10" guides="1" tooltips="1" connect="1" arrows="1" fold="1" page="1" pageScale="1" pageWidth="827" pageHeight="1169" math="0" shadow="0">
            <root>
                <mxCell id="0"/>
                <mxCell id="1" parent="0"/>
                <mxCell id="2" value="calcPrice&lt;br&gt;(engineCapacity[], laps, drivercount, totalGearPrice, membershipdiscount)" style="strokeWidth=2;html=1;shape=mxgraph.flowchart.terminator;whiteSpace=wrap;fillColor=#d80073;fontColor=#ffffff;strokeColor=#A50040;" vertex="1" parent="1">
                    <mxGeometry x="90" y="40" width="216.67" height="130" as="geometry"/>
                </mxCell>
                <mxCell id="5" value="" style="edgeStyle=none;html=1;strokeWidth=2;shadow=1;entryX=0.5;entryY=0;entryDx=0;entryDy=0;" edge="1" parent="1" target="12">
                    <mxGeometry relative="1" as="geometry">
                        <mxPoint x="197.99" y="170" as="sourcePoint"/>
                        <mxPoint x="198.33000000000004" y="220" as="targetPoint"/>
                    </mxGeometry>
                </mxCell>
                <mxCell id="8" value="" style="edgeStyle=none;html=1;strokeWidth=2;shadow=1;entryX=0;entryY=0.5;entryDx=0;entryDy=0;" edge="1" parent="1" target="10">
                    <mxGeometry relative="1" as="geometry">
                        <mxPoint x="253.33" y="384.94" as="sourcePoint"/>
                        <mxPoint x="303.33000000000004" y="384.94" as="targetPoint"/>
                    </mxGeometry>
                </mxCell>
                <mxCell id="10" value="totalKartPrice += (engineCapacity[i] * pricePerCC) * laps" style="whiteSpace=wrap;html=1;strokeWidth=2;fillColor=#fa6800;fontColor=#FFFFFF;strokeColor=#C73500;" vertex="1" parent="1">
                    <mxGeometry x="306.66999999999996" y="355" width="120" height="60" as="geometry"/>
                </mxCell>
                <mxCell id="16" value="" style="edgeStyle=none;html=1;strokeWidth=2;" edge="1" parent="1" source="11" target="15">
                    <mxGeometry relative="1" as="geometry"/>
                </mxCell>
                <mxCell id="11" value="i = 0,&lt;br&gt;i &amp;lt; driverCount,&lt;br&gt;i++" style="rhombus;whiteSpace=wrap;html=1;strokeWidth=2;fillColor=#6a00ff;fontColor=#ffffff;strokeColor=#3700CC;" vertex="1" parent="1">
                    <mxGeometry x="143.33" y="330" width="110" height="110" as="geometry"/>
                </mxCell>
                <mxCell id="12" value="pricePerCC = 0.3&lt;br&gt;totalKartPrice = 0" style="whiteSpace=wrap;html=1;strokeWidth=2;fillColor=#fa6800;fontColor=#FFFFFF;strokeColor=#C73500;" vertex="1" parent="1">
                    <mxGeometry x="138.33" y="220" width="120" height="60" as="geometry"/>
                </mxCell>
                <mxCell id="13" value="" style="edgeStyle=none;html=1;strokeWidth=2;shadow=1;entryX=0.5;entryY=0;entryDx=0;entryDy=0;" edge="1" parent="1" target="11">
                    <mxGeometry relative="1" as="geometry">
                        <mxPoint x="198.13" y="280" as="sourcePoint"/>
                        <mxPoint x="198.14" y="330" as="targetPoint"/>
                    </mxGeometry>
                </mxCell>
                <mxCell id="15" value="finalPrice =&lt;br&gt;(totaKartPrice + totalGearPrice) *&lt;br&gt;(1 - membershipDiscount)" style="whiteSpace=wrap;html=1;strokeWidth=2;fillColor=#fa6800;fontColor=#FFFFFF;strokeColor=#C73500;" vertex="1" parent="1">
                    <mxGeometry x="108.33000000000001" y="500" width="180" height="90" as="geometry"/>
                </mxCell>
                <mxCell id="17" value="" style="edgeStyle=none;html=1;strokeWidth=2;entryX=0.5;entryY=0;entryDx=0;entryDy=0;entryPerimeter=0;" edge="1" parent="1" target="18">
                    <mxGeometry relative="1" as="geometry">
                        <mxPoint x="197.99" y="590" as="sourcePoint"/>
                        <mxPoint x="197.99" y="650" as="targetPoint"/>
                    </mxGeometry>
                </mxCell>
                <mxCell id="18" value="return finalPrice" style="strokeWidth=2;html=1;shape=mxgraph.flowchart.terminator;whiteSpace=wrap;fillColor=#d80073;fontColor=#ffffff;strokeColor=#A50040;" vertex="1" parent="1">
                    <mxGeometry x="148.34" y="650" width="100" height="60" as="geometry"/>
                </mxCell>
                <mxCell id="26" value="" style="edgeStyle=none;html=1;strokeWidth=2;shadow=1;rounded=0;curved=0;" edge="1" parent="1">
                    <mxGeometry relative="1" as="geometry">
                        <mxPoint x="366.51" y="415" as="sourcePoint"/>
                        <mxPoint x="200" y="465" as="targetPoint"/>
                        <Array as="points">
                            <mxPoint x="367" y="465"/>
                        </Array>
                    </mxGeometry>
                </mxCell>
            </root>
        </mxGraphModel>
    </diagram>
</mxfile>